<svg width="142" height="99" viewBox="0 0 142 99" fill="none" xmlns="http://www.w3.org/2000/svg">
<g clip-path="url(#clip0_25_30)">
<g clip-path="url(#clip1_25_30)">
<path d="M114.037 29.6065C113.749 29.6065 113.475 29.6332 113.187 29.646C113.082 29.6598 112.978 29.6855 112.86 29.6994C112.6 29.726 112.299 29.8051 111.972 29.9108C111.593 29.9993 111.225 30.1282 110.874 30.2951C110.482 30.4659 110.038 30.5983 109.62 30.8898C109.201 31.1813 108.705 31.366 108.273 31.7632C107.829 32.1336 107.346 32.4902 106.876 32.9141C106.444 33.3903 105.988 33.8793 105.517 34.395L105.346 34.5807L105.307 34.6341L105.229 34.7526L104.877 35.2288C104.771 35.3879 104.628 35.5598 104.537 35.705L104.302 36.1289C103.635 37.2659 103.087 38.734 102.943 40.2159C102.775 41.7779 103.004 43.3569 103.609 44.8069C103.897 45.5478 104.314 46.2482 104.785 46.8974C105.033 47.2145 105.282 47.5316 105.569 47.8102C105.699 47.9554 105.857 48.1006 106.013 48.2202L106.235 48.4049L106.353 48.4978L106.406 48.5512C106.784 48.8021 107.228 49.1064 107.464 49.1854C107.725 49.3306 108.104 49.4502 108.47 49.5697C109.215 49.7673 109.999 49.8868 110.796 49.8335C112.373 49.7787 113.901 49.2737 115.199 48.3782C116.431 47.5206 117.414 46.3521 118.048 44.9916C118.218 44.6745 118.349 44.3296 118.454 43.9869L118.623 43.484V43.4178L118.649 43.3911V43.2854L118.714 42.994C118.766 42.6374 118.898 42.2007 118.898 41.9092C118.898 41.6049 118.95 41.3145 118.936 41.0231C118.916 39.912 118.561 38.833 117.918 37.9268C117.329 37.1207 116.676 36.4726 116.102 35.9431C114.925 34.9117 114.089 34.2765 114.089 34.2765C114.089 34.2765 114.351 34.2231 114.82 34.2498C115.512 34.3019 116.191 34.4626 116.833 34.7259C117.656 35.0697 118.662 35.6655 119.485 36.7235C120.426 37.9214 120.99 39.3718 121.106 40.8907C121.145 41.3006 121.106 41.7512 121.106 42.2007C121.106 42.6641 121.014 42.9683 120.962 43.3783L120.923 43.6687L120.896 43.815L120.857 43.973L120.831 44.0531L120.662 44.6873C120.556 45.1287 120.408 45.5586 120.217 45.9706C119.489 47.787 118.283 49.3731 116.728 50.5616C115.064 51.8474 113.062 52.6238 110.966 52.7973C109.894 52.9158 108.797 52.824 107.699 52.5987C106.679 52.4001 105.307 51.7521 104.654 51.2887L104.614 51.2631L104.497 51.183H104.471L104.393 51.104L104.223 50.9716L103.896 50.7068C103.678 50.5364 103.469 50.3554 103.269 50.1644C102.865 49.7907 102.494 49.3836 102.159 48.9473C101.479 48.0878 100.89 47.1483 100.472 46.1564C99.5947 44.198 99.2221 42.0511 99.3883 39.9116C99.5424 37.9067 100.136 35.9602 101.126 34.2103L101.492 33.575C101.609 33.3764 101.726 33.2312 101.844 33.0732L102.186 32.5831L102.407 32.266L102.616 32.0279C103.19 31.3927 103.74 30.7841 104.262 30.2022C104.314 30.1488 104.38 30.1093 104.433 30.056C102.144 13.0832 87.7709 0 70.3786 0C52.9863 0 39.933 11.9066 36.7171 27.7412C36.6392 28.1512 36.5602 28.6007 36.4951 29.1036C36.1812 31.4194 35.8417 34.8711 36.7833 38.6293C37.2659 40.4946 38.0891 42.3982 39.4354 44.0392C40.7551 45.693 42.5979 47.0949 44.8058 48.0216C45.3618 48.2703 45.9335 48.4822 46.5173 48.6558C46.7789 48.7359 47.1707 48.8683 47.3415 48.9206L48.3344 49.1587C48.6868 49.2516 48.9751 49.2911 49.2484 49.3306L50.1111 49.4502C50.725 49.463 51.3389 49.5431 51.9538 49.4897C54.4095 49.4363 56.8149 48.5501 58.8531 47.0693C60.897 45.516 62.5411 43.4978 63.6491 41.1821C64.7723 38.8664 65.3734 36.3136 65.3862 33.8793C65.4257 31.4322 64.7723 29.1303 63.5829 27.3708C63.2701 26.948 62.9423 26.538 62.5772 26.1803C62.512 26.1141 62.3551 25.9422 62.3551 25.9561L62.0156 25.6785L61.3355 25.1351L61.0087 24.8703L60.6959 24.6995L60.0948 24.3418C59.7158 24.0898 59.2321 23.9713 58.8136 23.7727C57.0755 23.1375 55.3768 23.3755 54.0443 23.9841C52.7119 24.6066 51.7702 25.5856 51.0912 26.4184C50.4121 27.2651 50.0064 28.0722 49.81 28.6936C49.6797 28.9979 49.6797 29.2488 49.6285 29.4346C49.589 29.6203 49.5623 29.7122 49.5623 29.7122C49.589 29.7122 49.3274 29.4079 49.1181 28.6808C48.9217 27.9526 48.9473 26.7889 49.5238 25.466C50.0854 24.156 51.3004 22.8075 53.077 21.9214C54.828 21.0213 57.2463 20.637 59.5578 21.4046C60.1205 21.6288 60.7087 21.7751 61.2703 22.1061C61.5586 22.2641 61.8319 22.4232 62.1202 22.5823L62.5515 22.8332L62.9039 23.0851L63.5968 23.6008L63.9491 23.8656C64.1979 24.0503 64.2235 24.1165 64.3804 24.2489C64.8897 24.6984 65.3211 25.228 65.7652 25.7703C67.4116 28.0188 68.2742 30.9165 68.3276 33.827C68.4056 36.7502 67.7906 39.7525 66.55 42.5317C65.3339 45.3226 63.427 47.902 60.918 49.8345C58.409 51.7382 55.2722 52.9425 52.1631 53.0621C51.3784 53.1411 50.6214 53.0621 49.8495 53.0621C49.4569 53.0199 49.065 52.9711 48.674 52.9158C48.2683 52.8624 47.8892 52.8101 47.5764 52.7311L46.5835 52.5197C46.0998 52.4129 45.8511 52.3072 45.4731 52.2015C44.7663 52.003 44.0873 51.7382 43.421 51.4745C40.7294 50.3897 38.2984 48.643 36.5474 46.4991C34.7836 44.3435 33.7383 41.8825 33.1629 39.6073C32.5885 37.3193 32.4315 35.1893 32.4443 33.3241C32.4443 32.6087 32.4838 31.9351 32.5233 31.2998C29.8951 30.335 27.117 29.8424 24.3172 29.8446C10.8977 29.8712 0 40.9045 0 54.5173C0 68.1301 10.8977 79.1623 24.3567 79.1623C27.9377 79.1623 31.3222 78.369 34.3789 76.9661C38.6389 89.349 50.2701 98.2256 63.9374 98.2256C74.7048 98.2256 84.191 92.7089 89.823 84.3224C89.9938 84.0042 90.1753 83.6476 90.359 83.2237C91.1822 81.3446 91.9658 78.3957 91.7042 74.7176C91.5868 72.8919 91.2216 70.8676 90.5159 68.9234C89.8625 67.0977 88.7649 65.1534 87.2489 63.6181C85.7467 62.0444 83.7736 60.8272 81.5902 60.1653C80.5065 59.8087 79.3566 59.6368 78.2057 59.5834H77.3441C77.0558 59.5834 76.7697 59.6229 76.4814 59.6368C76.1954 59.6494 75.9112 59.6891 75.6326 59.7553L75.2141 59.8354L75.0048 59.8749H74.9002L74.8746 59.9016C74.2873 60.0991 73.5549 60.2977 73.2143 60.5358C72.7841 60.7215 72.3132 61.0386 71.8424 61.3429C70.9413 62.0177 70.0914 62.7982 69.438 63.7238C68.7195 64.6239 68.223 65.6691 67.7788 66.7005C67.4265 67.7724 67.1126 68.87 67.0475 69.9676C66.851 72.1776 67.2824 74.3343 68.1579 76.1995C68.2625 76.4376 68.3671 76.6757 68.4846 76.8999L68.8903 77.5491L69.2821 78.1833L69.3334 78.2634L69.3601 78.3028V78.3295C69.3601 78.3295 69.3729 78.3295 69.3867 78.3424L69.4647 78.4352L69.7135 78.7523C70.053 79.1367 70.3797 79.6524 70.7064 79.9033C71.0331 80.1809 71.3075 80.4991 71.6459 80.75C72.8714 81.7279 74.3679 82.3053 75.9326 82.4038C77.3441 82.5095 78.5719 82.1796 79.6172 81.9799C80.7975 81.7205 81.9879 81.509 83.1853 81.3457C83.1853 81.3457 83.0284 81.7023 82.597 82.218C82.1529 82.7348 81.4204 83.4095 80.2973 83.9519C79.173 84.5071 77.6452 84.8509 75.8408 84.8114C74.0514 84.7847 71.947 84.1761 70.1437 82.8533C69.6868 82.5223 69.2554 82.0995 68.7985 81.7162C68.3287 81.3051 68.0799 80.9218 67.7009 80.5119L67.4393 80.2076L67.308 80.0485L67.2301 79.9567V79.93L67.1777 79.8766L67.1126 79.7848L66.6161 79.0438L66.1069 78.289C65.9499 78.0253 65.8186 77.7338 65.6755 77.4562C64.4584 75.0796 63.8946 72.4222 64.042 69.7562C64.0943 68.3682 64.4082 66.9792 64.8257 65.6157C65.3349 64.2801 65.9232 62.9434 66.7859 61.7668C67.5963 60.5497 68.6543 59.4777 69.8309 58.5382C70.9413 57.6253 72.7051 56.832 73.8026 56.5139L73.9863 56.4615H74.0503L74.1817 56.422L74.456 56.3687L75.0048 56.2502C75.3649 56.1607 75.7322 56.1032 76.1024 56.0783C76.4686 56.0377 76.8348 55.9982 77.2 55.9715H78.2975C79.7613 55.9982 81.2251 56.2106 82.6109 56.6334C85.3584 57.4193 87.8591 58.895 89.8753 60.9201C91.773 62.8239 93.2275 65.1228 94.1353 67.6529C94.9005 69.8414 95.3579 72.1256 95.4945 74.44C95.5936 75.9668 95.5453 77.4996 95.3503 79.0171C100.303 83.5152 106.849 86.2538 114.024 86.2538C129.469 86.2538 142 73.5667 142 57.9296C142 42.2936 129.469 29.6065 114.024 29.6065H114.037Z" fill="url(#paint0_linear_25_30)"/>
</g>
</g>
<defs>
<linearGradient id="paint0_linear_25_30" x1="31.6874" y1="96.8098" x2="112.828" y2="16.6492" gradientUnits="userSpaceOnUse">
<stop stop-color="#FFD5BC"/>
<stop offset="1" stop-color="#FFD761"/>
</linearGradient>
<clipPath id="clip0_25_30">
<rect width="142" height="98.2256" fill="white"/>
</clipPath>
<clipPath id="clip1_25_30">
<rect width="142" height="98.2256" fill="white"/>
</clipPath>
</defs>
</svg>
