<svg width="83" height="83" viewBox="0 0 83 83" fill="none" xmlns="http://www.w3.org/2000/svg">
<rect x="0.438477" y="0.0644531" width="82" height="82" rx="41" fill="url(#paint0_linear_273_952)"/>
<path d="M16.6465 42.9212H19.5426L20.7734 44.4923L22.388 46.3458L24.8714 49.4084H21.6278L19.8901 47.3305L18.862 45.8535L16.6465 42.9212ZM24.9728 40.836C24.9728 42.4674 24.6591 43.8503 24.0316 44.9846C23.4041 46.1189 22.5545 46.9805 21.483 47.5694C20.4163 48.1583 19.2192 48.4527 17.8918 48.4527C16.5596 48.4527 15.3601 48.1559 14.2934 47.5622C13.2267 46.9685 12.3795 46.1069 11.752 44.9774C11.1294 43.8431 10.8181 42.4626 10.8181 40.836C10.8181 39.2045 11.1294 37.8216 11.752 36.6873C12.3795 35.553 13.2267 34.6914 14.2934 34.1025C15.3601 33.5136 16.5596 33.2192 17.8918 33.2192C19.2192 33.2192 20.4163 33.5136 21.483 34.1025C22.5545 34.6914 23.4041 35.553 24.0316 36.6873C24.6591 37.8216 24.9728 39.2045 24.9728 40.836ZM21.3092 40.836C21.3092 39.8706 21.1717 39.0548 20.8965 38.3887C20.6262 37.7226 20.2352 37.2182 19.7236 36.8755C19.2168 36.5328 18.6062 36.3615 17.8918 36.3615C17.1823 36.3615 16.5717 36.5328 16.06 36.8755C15.5484 37.2182 15.155 37.7226 14.8798 38.3887C14.6095 39.0548 14.4744 39.8706 14.4744 40.836C14.4744 41.8013 14.6095 42.6171 14.8798 43.2832C15.155 43.9493 15.5484 44.4537 16.06 44.7964C16.5717 45.1391 17.1823 45.3104 17.8918 45.3104C18.6062 45.3104 19.2168 45.1391 19.7236 44.7964C20.2352 44.4537 20.6262 43.9493 20.8965 43.2832C21.1717 42.6171 21.3092 41.8013 21.3092 40.836ZM36.0559 33.4219H39.6326V42.9863C39.6326 44.0917 39.3695 45.0546 38.8434 45.8752C38.3172 46.6909 37.5836 47.3232 36.6423 47.7721C35.7011 48.2162 34.6078 48.4382 33.3625 48.4382C32.1027 48.4382 31.0021 48.2162 30.0609 47.7721C29.1197 47.3232 28.3884 46.6909 27.8671 45.8752C27.3458 45.0546 27.0852 44.0917 27.0852 42.9863V33.4219H30.6691V42.675C30.6691 43.1866 30.7801 43.6428 31.0021 44.0434C31.229 44.444 31.5452 44.7578 31.9506 44.9846C32.3561 45.2115 32.8267 45.3249 33.3625 45.3249C33.8983 45.3249 34.3665 45.2115 34.7671 44.9846C35.1725 44.7578 35.4887 44.444 35.7156 44.0434C35.9424 43.6428 36.0559 43.1866 36.0559 42.675V33.4219ZM45.0863 48.25H41.2345L46.2375 33.4219H51.0088L56.0119 48.25H52.1601L48.6775 37.1579H48.5616L45.0863 48.25ZM44.5722 42.4143H52.6234V45.1367H44.5722V42.4143ZM55.3566 33.4219H59.3605L62.4956 39.6268H62.6259L65.7609 33.4219H69.7648L64.3418 43.2976V48.25H60.7796V43.2976L55.3566 33.4219Z" fill="#FDFFB6"/>
<defs>
<linearGradient id="paint0_linear_273_952" x1="5.14864" y1="85.8787" x2="77.7283" y2="-3.74976" gradientUnits="userSpaceOnUse">
<stop stop-color="#EE5807"/>
<stop offset="1" stop-color="#FF6918"/>
</linearGradient>
</defs>
</svg>
